<?xml version="1.0" encoding="UTF-8" standalone="no"?>
<svg
   viewBox="0 0 16 16"
   version="1.1"
   id="svg22"
   sodipodi:docname="lang.svg"
   xml:space="preserve"
   inkscape:version="1.2.2 (b0a8486541, 2022-12-01)"
   width="16"
   height="16"
   xmlns:inkscape="http://www.inkscape.org/namespaces/inkscape"
   xmlns:sodipodi="http://sodipodi.sourceforge.net/DTD/sodipodi-0.dtd"
   xmlns="http://www.w3.org/2000/svg"
   xmlns:svg="http://www.w3.org/2000/svg"><defs
     id="defs26" /><sodipodi:namedview
     id="namedview24"
     pagecolor="#ffffff"
     bordercolor="#000000"
     borderopacity="0.25"
     inkscape:showpageshadow="2"
     inkscape:pageopacity="0.0"
     inkscape:pagecheckerboard="0"
     inkscape:deskcolor="#d1d1d1"
     showgrid="true"
     inkscape:zoom="1"
     inkscape:cx="16"
     inkscape:cy="12"
     inkscape:window-width="2560"
     inkscape:window-height="1359"
     inkscape:window-x="0"
     inkscape:window-y="0"
     inkscape:window-maximized="1"
     inkscape:current-layer="svg22"><inkscape:grid
       type="xygrid"
       id="grid210"
       originx="0"
       originy="0"
       empspacing="1" /></sodipodi:namedview><rect
     style="fill:#000000"
     id="rect298"
     width="2"
     height="1"
     x="10"
     y="1" /><rect
     style="fill:#000000"
     id="rect352"
     width="8"
     height="1"
     x="7"
     y="2" /><rect
     style="fill:#000000"
     id="rect354"
     width="1"
     height="2"
     x="8"
     y="3" /><rect
     style="fill:#000000"
     id="rect356"
     width="1"
     height="2"
     x="13"
     y="3" /><rect
     style="fill:#000000"
     id="rect358"
     width="1"
     height="1"
     x="9"
     y="5" /><rect
     style="fill:#000000"
     id="rect360"
     width="2"
     height="1"
     x="10"
     y="6" /><rect
     style="fill:#000000"
     id="rect362"
     width="1"
     height="1"
     x="9"
     y="7" /><rect
     style="fill:#000000"
     id="rect364"
     width="1"
     height="1"
     x="8"
     y="8" /><rect
     style="fill:#000000"
     id="rect366"
     width="1"
     height="1"
     x="12"
     y="7" /><rect
     style="fill:#000000"
     id="rect368"
     width="1"
     height="1"
     x="13"
     y="8" /><rect
     style="fill:#000000"
     id="rect370"
     width="1"
     height="1"
     x="12"
     y="5" /><rect
     style="fill:#000000"
     id="rect372"
     width="1"
     height="6"
     x="6"
     y="9" /><rect
     style="fill:#000000"
     id="rect374"
     width="1"
     height="6"
     x="1"
     y="9" /><rect
     style="fill:#000000"
     id="rect376"
     width="4"
     height="1"
     x="2"
     y="11" /><rect
     style="fill:#000000"
     id="rect378"
     width="1"
     height="1"
     x="2"
     y="8" /><rect
     style="fill:#000000"
     id="rect380"
     width="2"
     height="1"
     x="3"
     y="7" /><rect
     style="fill:#000000"
     id="rect384"
     width="1"
     height="1"
     x="5"
     y="8" /><rect
     style="fill:#000000"
     id="rect390"
     width="1"
     height="2"
     x="1"
     y="4" /><rect
     style="fill:#000000"
     id="rect392"
     width="1"
     height="1"
     x="2"
     y="3" /><rect
     style="fill:#000000"
     id="rect398"
     width="1"
     height="1"
     x="3"
     y="3" /><rect
     style="fill:#000000"
     id="rect400"
     width="1"
     height="3"
     x="4"
     y="2" /><rect
     style="fill:#000000"
     id="rect402"
     width="1"
     height="1"
     x="5"
     y="3" /><rect
     style="fill:#000000"
     id="rect404"
     width="1"
     height="3"
     x="11"
     y="11" /><rect
     style="fill:#000000"
     id="rect406"
     width="1"
     height="1"
     x="10"
     y="12" /><rect
     style="fill:#000000"
     id="rect408"
     width="2"
     height="1"
     x="12"
     y="12" /><rect
     style="fill:#000000"
     id="rect410"
     width="1"
     height="2"
     x="14"
     y="10" /></svg>
