<?xml version="1.0" encoding="UTF-8" standalone="no"?>
<svg
   version="1.1"
   width="128px"
   height="128px"
   id="RSSicon"
   viewBox="0 0 256 256"
   sodipodi:docname="rss.svg"
   inkscape:version="1.2.2 (b0a8486541, 2022-12-01)"
   xmlns:inkscape="http://www.inkscape.org/namespaces/inkscape"
   xmlns:sodipodi="http://sodipodi.sourceforge.net/DTD/sodipodi-0.dtd"
   xmlns="http://www.w3.org/2000/svg"
   xmlns:svg="http://www.w3.org/2000/svg">
  <sodipodi:namedview
     id="namedview32"
     pagecolor="#ffffff"
     bordercolor="#000000"
     borderopacity="0.25"
     inkscape:showpageshadow="2"
     inkscape:pageopacity="0.0"
     inkscape:pagecheckerboard="0"
     inkscape:deskcolor="#d1d1d1"
     showgrid="false"
     inkscape:zoom="3.0546875"
     inkscape:cx="56.634271"
     inkscape:cy="37.974425"
     inkscape:window-width="1503"
     inkscape:window-height="933"
     inkscape:window-x="0"
     inkscape:window-y="0"
     inkscape:window-maximized="1"
     inkscape:current-layer="RSSicon" />
  <defs
     id="defs17">
    <linearGradient
       x1="0.085"
       y1="0.085"
       x2="0.915"
       y2="0.915"
       id="RSSg">
      <stop
         offset="0.0"
         stop-color="#E3702D"
         id="stop2" />
      <stop
         offset="0.1071"
         stop-color="#EA7D31"
         id="stop4" />
      <stop
         offset="0.3503"
         stop-color="#F69537"
         id="stop6" />
      <stop
         offset="0.5"
         stop-color="#FB9E3A"
         id="stop8" />
      <stop
         offset="0.7016"
         stop-color="#EA7C31"
         id="stop10" />
      <stop
         offset="0.8866"
         stop-color="#DE642B"
         id="stop12" />
      <stop
         offset="1.0"
         stop-color="#D95B29"
         id="stop14" />
    </linearGradient>
  </defs>
  <path
     id="path29"
     d="M 184,213 A 140,140 0 0 0 44,73 V 38 a 175,175 0 0 1 175,175 z m -24,0 H 126 A 82,82 0 0 0 44,131 V 97 A 116,116 0 0 1 160,213 Z M 92,189 A 24,24 0 0 1 68,213 24,24 0 0 1 44,189 24,24 0 0 1 68,165 24,24 0 0 1 92,189 Z M 55,0 C 24.53003,0 0,24.53003 0,55 v 146 c 0,30.46997 24.53003,55 55,55 h 146 c 30.46997,0 55,-24.53003 55,-55 V 55 C 256,24.53003 231.46997,0 201,0 Z" />
</svg>
