<svg xmlns="http://www.w3.org/2000/svg" viewBox="0 0 64 64"><path d="M16.1 4h4.6v4.6h-4.6z"/><path d="M20.7 4h5.5v4.6h-5.5z"/><path d="M26.2 4h4.6v4.6h-4.6zM16.1 34.2h4.6v4.6h-4.6z"/><path d="M20.7 34.2h5.5v4.6h-5.5z"/><path d="M26.2 34.2h4.6v4.6h-4.6zM30.8 8.6h5.5v5.5h-5.5zM10.6 8.6h5.5v5.5h-5.5zM30.8 28.8h5.5v5.5h-5.5z"/><path d="M36.2 34.2h4.6v4.6h-4.6z"/><path d="M30.8 34.2h5.5v4.6h-5.5z"/><path d="M36.2 28.8h4.6v5.5h-4.6zM40.8 38.8h5.5v5.5h-5.5z"/><path d="M36.2 38.8h4.6v5.5h-4.6z"/><path d="M40.8 34.2h5.5v4.6h-5.5zM46.3 44.3h4.6v4.6h-4.6zM40.8 44.3h5.5v4.6h-5.5zM46.3 38.8h4.6v5.5h-4.6zM50.9 48.9h5.5v5.5h-5.5zM46.3 48.9h4.6v5.5h-4.6zM50.9 44.3h5.5v4.6h-5.5zM56.4 54.4H61V59h-4.6zM50.9 54.4h5.5V59h-5.5zM56.4 48.9H61v5.5h-4.6zM10.6 28.8h5.5v5.5h-5.5zM6 14.1h4.6v4.6H6zM6 18.7h4.6v5.5H6zM6 24.2h4.6v4.6H6zM36.2 14.1h4.6v4.6h-4.6zM36.2 18.7h4.6v5.5h-4.6zM36.2 24.2h4.6v4.6h-4.6zM16.1 19.6h5.5v5.5h-5.5zM21.6 14.1h5.5v5.5h-5.5z"/></svg>